<svg width="80" height="70" viewBox="0 0 80 70" fill="none" xmlns="http://www.w3.org/2000/svg">
<path d="M0.855469 51.68C0.855469 62.288 6.46922 69.904 16.2933 69.904C25.556 69.904 32.2925 62.56 32.2925 53.856C32.2925 45.152 24.7139 38.352 16.0126 38.352C17.416 27.2 22.7491 17.68 32.5731 10.608V0C10.3988 12.24 0.855469 30.464 0.855469 51.68ZM79.4479 0C57.2736 12.24 47.7303 30.464 47.7303 51.68C47.7303 62.288 53.344 69.904 63.1681 69.904C72.4307 69.904 79.1672 62.56 79.1672 53.856C79.1672 45.152 71.5887 38.352 62.8874 38.352C64.2908 27.2 69.6239 17.68 79.4479 10.608V0Z" fill="#56B84E"/>
</svg>
